<?xml version="1.0" encoding="UTF-8" standalone="no"?>
<svg
   xmlns:dc="http://purl.org/dc/elements/1.1/"
   xmlns:cc="http://creativecommons.org/ns#"
   xmlns:rdf="http://www.w3.org/1999/02/22-rdf-syntax-ns#"
   xmlns:svg="http://www.w3.org/2000/svg"
   xmlns="http://www.w3.org/2000/svg"
   xmlns:sodipodi="http://sodipodi.sourceforge.net/DTD/sodipodi-0.dtd"
   xmlns:inkscape="http://www.inkscape.org/namespaces/inkscape"
   aria-hidden="true"
   focusable="false"
   data-prefix="fab"
   data-icon="twitter"
   class="svg-inline--fa fa-twitter fa-w-16"
   role="img"
   viewBox="0 0 29.549925 34"
   version="1.1"
   id="svg4"
   sodipodi:docname="twitter-brands.svg"
   width="29.549925"
   height="34"
   inkscape:version="1.0.2 (e86c870879, 2021-01-15)">
  <metadata
     id="metadata10">
    <rdf:RDF>
      <cc:Work
         rdf:about="">
        <dc:format>image/svg+xml</dc:format>
        <dc:type
           rdf:resource="http://purl.org/dc/dcmitype/StillImage" />
        <dc:title></dc:title>
      </cc:Work>
    </rdf:RDF>
  </metadata>
  <defs
     id="defs8" />
  <sodipodi:namedview
     pagecolor="#ffffff"
     bordercolor="#666666"
     borderopacity="1"
     objecttolerance="10"
     gridtolerance="10"
     guidetolerance="10"
     inkscape:pageopacity="0"
     inkscape:pageshadow="2"
     inkscape:window-width="1708"
     inkscape:window-height="1360"
     id="namedview6"
     showgrid="false"
     fit-margin-top="5"
     fit-margin-bottom="5"
     fit-margin-left="0"
     fit-margin-right="0"
     inkscape:zoom="22.273864"
     inkscape:cx="13.511849"
     inkscape:cy="18.204154"
     inkscape:window-x="1724"
     inkscape:window-y="35"
     inkscape:window-maximized="0"
     inkscape:current-layer="svg4" />
  <path
     fill="currentColor"
     d="m 26.512504,10.981227 c 0.01876,0.262488 0.01876,0.525033 0.01876,0.78752 0,8.006214 -6.093715,17.231252 -17.2312516,17.231252 -3.4312706,0 -6.6187503,-0.993793 -9.3000124,-2.718719 0.48751795,0.05621 0.95622083,0.07497 1.4624961,0.07497 2.8312055,0 5.437496,-0.956221 7.5187538,-2.587476 -2.6625048,-0.05627 -4.8937637,-1.800013 -5.6625265,-4.20003 0.3750316,0.05621 0.7500055,0.09373 1.1437944,0.09373 0.5437322,0 1.0875222,-0.07503 1.5937398,-0.206215 C 3.2812665,18.893712 1.1999509,16.456238 1.1999509,13.512488 v -0.07497 c 0.8062198,0.450003 1.7437987,0.731248 2.7374765,0.768705 C 2.3061729,13.1187 1.2374656,11.262473 1.2374656,9.162458 c 0,-1.124979 0.2999445,-2.15623 0.8249771,-3.056236 C 5.043707,9.78122 9.5249821,12.181179 14.549932,12.443724 14.456202,11.993721 14.399931,11.525018 14.399931,11.056258 14.399931,7.718719 17.09995,5 20.456188,5 c 1.743741,0 3.318724,0.731248 4.425003,1.912499 1.36871,-0.262487 2.681205,-0.768762 3.843757,-1.462496 -0.450061,1.406282 -1.406282,2.587533 -2.662505,3.337481 1.218766,-0.131186 2.400017,-0.468761 3.487482,-0.937463 -0.824862,1.199951 -1.85617,2.268658 -3.037421,3.131206 z"
     id="path2"
     style="stroke-width:0.0577149;fill:#ffffff" />
</svg>
